<svg width="50" height="50" viewBox="0 0 50 50" fill="none" xmlns="http://www.w3.org/2000/svg">
<path d="M47.25 34.3889C43.8333 34.3889 40.5278 33.8333 37.4444 32.8333C36.4722 32.5 35.3889 32.75 34.6389 33.5L30.2778 38.9722C22.4167 35.2222 15.0556 28.1389 11.1389 20L16.5556 15.3889C17.3056 14.6111 17.5278 13.5278 17.2222 12.5556C16.1944 9.47222 15.6667 6.16667 15.6667 2.75C15.6667 1.25 14.4167 0 12.9167 0H3.30556C1.80556 0 0 0.666667 0 2.75C0 28.5556 21.4722 50 47.25 50C49.2222 50 50 48.25 50 46.7222V37.1389C50 35.6389 48.75 34.3889 47.25 34.3889Z" fill="white"/>
</svg>
